Complex World - 1992 - VHSRip.XVID.AC3tt
======================================
 
http://www.imdb.com/title/tt0099295/

The Heartbreak Hotel nightclub in Providence is having a busy night: the owner's politician father is trying to shut the club down, one of the bands is making phone calls to the afterworld, and a pathetic folk-singer/terrorist is planning to make this his night of flaming glory. Includes such musical numbers as "I Married a Tree" and "Why Do We Feed the Broads?"

==========

Source : VHS
Size : 691 MB
Runtime : 01:21:11
Genre : Comedy | Musical | Action
IMDb : 6.3/10 (81 users)
Director : Jim Wolpaw
Writers : Jim Wolpaw, Rich Lupo, Dennis Maloney and Geoff Adams
Starring : Stanley Matis, Margo Dionne and Allen Oliver

=====

Video

ID                               : 0
Format                           : MPEG-4 Visual
Format profile                   : Advanced Simple@L5
Format settings, BVOP            : 2
Format settings, QPel            : No
Format settings, GMC             : No warppoints
Format settings, Matrix          : Default (H.263)
Codec ID                         : XVID
Codec ID/Hint                    : XviD
Duration                         : 1h 21mn
Bit rate                         : 993 Kbps
Width                            : 720 pixels
Height                           : 480 pixels
Display aspect ratio             : 4:3
Frame rate                       : 29.970 fps
Standard                         : NTSC
Color space                      : YUV
Chroma subsampling               : 4:2:0
Bit depth                        : 8 bits
Scan type                        : Progressive
Compression mode                 : Lossy
Bits/(Pixel*Frame)               : 0.096
Stream size                      : 576 MiB (83%)
Writing library                  : XviD 1.1.2 (UTC 2006-11-01)

Audio

ID                               : 1
Format                           : AC-3
Format/Info                      : Audio Coding 3
Mode extension                   : CM (complete main)
Codec ID                         : 2000
Duration                         : 1h 21mn
Bit rate mode                    : Constant
Bit rate                         : 192 Kbps
Channel(s)                       : 2 channels
Channel positions                : Front: L R
Sampling rate                    : 48.0 KHz
Bit depth                        : 16 bits
Compression mode                 : Lossy
Delay relative to video          : 33ms
Stream size                      : 111 MiB (16%)
Alignment                        : Split accross interleaves
Interleave, duration             : 500 ms (14.98 video frames)
Interleave, preload duration     : 500 ms

